# xmcd
# 
# Track frame offsets:
#     150
#     18181
#     33809
#     51118
#     65387
#     79939
#     94807
#     115571
#     129872
#     147686
#     163625
#     179442
#     193476
#     209147
#     225015
#     240604
#     257786
# 
# Disc length: 3635
# 
# Revision: 3
# Processed by: cddbd v1.5.2PL0 Copyright (c) Steve Scherf et al.
# Submitted via: fre:ac v1.0.27
# 
DISCID=e70e3111
DTITLE=Didier Barbelivien - Atelier d'artistes
DYEAR=2009
DGENRE=Chanson
TTITLE0=Atelier d'artistes
TTITLE1=Quand je t'aime     (+ Tatiana)
TTITLE2=Avec vingt ans de moins     (+ Tatiana)
TTITLE3=Peite fille du soleil
TTITLE4=Michele
TTITLE5=Elle m'oublie
TTITLE6=Les sonlights des tropiques     (+ Tatiana)
TTITLE7=Il tape sur des bambous
TTITLE8=Mediteraneenne     (+ Tatiana)
TTITLE9=Et tu danses avec lui
TTITLE10=Ce qui me manque     (+ Tatiana)
TTITLE11=La riviere de notre enfance
TTITLE12=L'adieu
TTITLE13=Et toute la ville en parle
TTITLE14=J'etais un ange     (+ Tatiana)
TTITLE15=Mademoiselle chante le blues
TTITLE16=Seule la solitude
EXTD=
EXTT0=
EXTT1=
EXTT2=
EXTT3=
EXTT4=
EXTT5=
EXTT6=
EXTT7=
EXTT8=
EXTT9=
EXTT10=
EXTT11=
EXTT12=
EXTT13=
EXTT14=
EXTT15=
EXTT16=
PLAYORDER=
